<svg width="108" height="26" viewBox="0 0 108 26" fill="none" xmlns="http://www.w3.org/2000/svg">
<path d="M0 8.19809H11.6467V11.7351H4.00283V15.0754H10.1179V18.5606H4.00283V25.3887H0V8.19809Z" fill="#0F3675"/>
<path d="M14.5437 21.5409C14.5437 18.6434 15.7514 17.9314 17.9987 17.6129C19.1351 17.4394 20.5467 17.3177 21.9863 17.2426V15.6476C21.9863 15.2799 21.841 15.1297 21.4767 15.1297H19.2549C18.8905 15.1297 18.7453 15.2773 18.7453 15.6476V16.4089H14.9794V15.3032C14.9794 13.1437 15.9706 12.1365 18.0956 12.1365H22.664C24.789 12.1365 25.7802 13.1437 25.7802 15.3032V25.4016H22.1086V23.5114C21.3824 24.4928 20.3428 25.5 18.0956 25.5C15.5833 25.4948 14.5437 24.4384 14.5437 21.5409ZM21.9863 21.5176V19.4047L19.0867 19.9692C18.5312 20.0909 18.3376 20.3136 18.3376 21.2224C18.3376 22.2038 18.5083 22.4731 19.102 22.4731C20.2944 22.4731 21.0435 22.0562 21.9863 21.5176Z" fill="#0F3675"/>
<path d="M29.5384 22.2297V15.3032C29.5384 13.1437 30.5295 12.1365 32.6571 12.1365H37.2434C39.3709 12.1365 40.3621 13.1437 40.3621 15.3032V17.1157H36.5504V15.8392C36.5504 15.4456 36.4306 15.3213 36.0408 15.3213H33.8674C33.4801 15.3213 33.3578 15.443 33.3578 15.8392V21.6885C33.3578 22.0562 33.4775 22.2064 33.8674 22.2064H36.0408C36.4281 22.2064 36.5504 22.0588 36.5504 21.6885V20.412H40.3723V22.2245C40.3723 24.384 39.3811 25.3912 37.2536 25.3912H32.6673C30.5296 25.3964 29.5384 24.3892 29.5384 22.2297Z" fill="#0F3675"/>
<path d="M45.8962 22.2297V15.2048H43.9139V12.1365H45.9523V8.94382H49.6723V12.1365H52.4521V15.2048H49.7131V21.7377C49.7131 22.1054 49.8583 22.2556 50.2227 22.2556H52.447V25.399H49.0124C46.8874 25.3964 45.8962 24.3892 45.8962 22.2297Z" fill="#0F3675"/>
<path d="M56.4244 22.2297V15.3032C56.4244 13.1437 57.4156 12.1365 59.5405 12.1365H64.5192C66.6442 12.1365 67.6354 13.1437 67.6354 15.3032V22.2297C67.6354 24.3892 66.6442 25.3964 64.5192 25.3964H59.5278C57.4028 25.3964 56.4244 24.3892 56.4244 22.2297ZM63.3599 22.2038C63.7447 22.2038 63.8695 22.0562 63.8695 21.6859V15.8444C63.8695 15.4508 63.7472 15.3265 63.3599 15.3265H60.6871C60.3024 15.3265 60.1775 15.4482 60.1775 15.8444V21.6885C60.1775 22.0562 60.2998 22.2064 60.6871 22.2064L63.3599 22.2038Z" fill="#0F3675"/>
<path d="M71.7274 12.1365H75.5493V14.0008C76.25 13.0194 77.1444 12.1365 78.933 12.1365H80.1407V15.6217H78.5202C77.4814 15.5792 76.4518 15.8349 75.5493 16.3597V25.3964H71.7274V12.1365Z" fill="#0F3675"/>
<path d="M97.849 19.5523L101.421 25.3964H108L101.138 14.1743L97.849 19.5523Z" fill="#0081CC"/>
<path d="M107.427 1.43993L108 0.5H101.421L97.0998 7.56888L92.776 0.5H86.1997L93.8104 12.9495L86.1997 25.3964H92.776L107.427 1.43993Z" fill="#0F3675"/>
</svg>
